<svg xmlns="http://www.w3.org/2000/svg" viewBox="0 0 1200 675" fill="none">
  <defs>
    <linearGradient id="bg" x1="0" y1="0" x2="1200" y2="675" gradientUnits="userSpaceOnUse">
      <stop offset="0%" stop-color="#2e1065"/>
      <stop offset="100%" stop-color="#581c87"/>
    </linearGradient>
  </defs>

  <!-- Background -->
  <rect width="1200" height="675" fill="url(#bg)"/>

  <!-- Subtle grid -->
  <g stroke="#a855f7" stroke-opacity="0.08" stroke-width="1">
    <line x1="0" y1="135" x2="1200" y2="135"/>
    <line x1="0" y1="270" x2="1200" y2="270"/>
    <line x1="0" y1="405" x2="1200" y2="405"/>
    <line x1="0" y1="540" x2="1200" y2="540"/>
    <line x1="240" y1="0" x2="240" y2="675"/>
    <line x1="480" y1="0" x2="480" y2="675"/>
    <line x1="720" y1="0" x2="720" y2="675"/>
    <line x1="960" y1="0" x2="960" y2="675"/>
  </g>

  <!-- Terraform logo (subtle background) -->
  <g transform="translate(980,80)" opacity="0.12">
    <g fill="#a855f7">
      <rect x="28" y="0" width="26" height="44" rx="2"/>
      <rect x="58" y="15" width="26" height="44" rx="2"/>
      <rect x="28" y="50" width="26" height="44" rx="2"/>
      <rect x="-2" y="15" width="26" height="44" rx="2"/>
    </g>
  </g>

  <!-- LEFT SIDE: Sequential (default parallelism=10) -->
  <g transform="translate(100,100)">
    <!-- Header -->
    <text x="200" y="0" text-anchor="middle" fill="#c4b5fd" font-family="system-ui,sans-serif" font-size="14" font-weight="600">DEFAULT (parallelism=10)</text>

    <!-- Timeline bar background -->
    <rect x="0" y="20" width="400" height="360" rx="10" fill="#1e0a3a" fill-opacity="0.5" stroke="#7c3aed" stroke-opacity="0.4" stroke-width="1"/>

    <!-- Resource bars -->
    <g transform="translate(16,36)">
      <rect x="0" y="0" width="280" height="24" rx="4" fill="#a855f7" fill-opacity="0.2" stroke="#a855f7" stroke-opacity="0.35" stroke-width="1"/>
      <text x="8" y="16" fill="#d8b4fe" font-family="ui-monospace,monospace" font-size="11">aws_vpc.main</text>
      <text x="268" y="16" text-anchor="end" fill="#7e5bae" font-family="ui-monospace,monospace" font-size="10">12s</text>
    </g>
    <g transform="translate(16,66)">
      <rect x="0" y="0" width="200" height="24" rx="4" fill="#a855f7" fill-opacity="0.2" stroke="#a855f7" stroke-opacity="0.35" stroke-width="1"/>
      <text x="8" y="16" fill="#d8b4fe" font-family="ui-monospace,monospace" font-size="11">aws_subnet.a</text>
      <text x="188" y="16" text-anchor="end" fill="#7e5bae" font-family="ui-monospace,monospace" font-size="10">8s</text>
    </g>
    <g transform="translate(16,96)">
      <rect x="0" y="0" width="200" height="24" rx="4" fill="#a855f7" fill-opacity="0.2" stroke="#a855f7" stroke-opacity="0.35" stroke-width="1"/>
      <text x="8" y="16" fill="#d8b4fe" font-family="ui-monospace,monospace" font-size="11">aws_subnet.b</text>
      <text x="188" y="16" text-anchor="end" fill="#7e5bae" font-family="ui-monospace,monospace" font-size="10">8s</text>
    </g>
    <g transform="translate(16,126)">
      <rect x="0" y="0" width="160" height="24" rx="4" fill="#a855f7" fill-opacity="0.2" stroke="#a855f7" stroke-opacity="0.35" stroke-width="1"/>
      <text x="8" y="16" fill="#d8b4fe" font-family="ui-monospace,monospace" font-size="11">aws_sg.web</text>
      <text x="148" y="16" text-anchor="end" fill="#7e5bae" font-family="ui-monospace,monospace" font-size="10">6s</text>
    </g>
    <g transform="translate(16,156)">
      <rect x="0" y="0" width="240" height="24" rx="4" fill="#a855f7" fill-opacity="0.2" stroke="#a855f7" stroke-opacity="0.35" stroke-width="1"/>
      <text x="8" y="16" fill="#d8b4fe" font-family="ui-monospace,monospace" font-size="11">aws_lb.main</text>
      <text x="228" y="16" text-anchor="end" fill="#7e5bae" font-family="ui-monospace,monospace" font-size="10">10s</text>
    </g>
    <g transform="translate(16,186)">
      <rect x="0" y="0" width="320" height="24" rx="4" fill="#a855f7" fill-opacity="0.2" stroke="#a855f7" stroke-opacity="0.35" stroke-width="1"/>
      <text x="8" y="16" fill="#d8b4fe" font-family="ui-monospace,monospace" font-size="11">aws_instance.web[0]</text>
      <text x="308" y="16" text-anchor="end" fill="#7e5bae" font-family="ui-monospace,monospace" font-size="10">14s</text>
    </g>
    <g transform="translate(16,216)">
      <rect x="0" y="0" width="320" height="24" rx="4" fill="#a855f7" fill-opacity="0.2" stroke="#a855f7" stroke-opacity="0.35" stroke-width="1"/>
      <text x="8" y="16" fill="#d8b4fe" font-family="ui-monospace,monospace" font-size="11">aws_instance.web[1]</text>
      <text x="308" y="16" text-anchor="end" fill="#7e5bae" font-family="ui-monospace,monospace" font-size="10">14s</text>
    </g>
    <g transform="translate(16,246)">
      <rect x="0" y="0" width="320" height="24" rx="4" fill="#a855f7" fill-opacity="0.2" stroke="#a855f7" stroke-opacity="0.35" stroke-width="1"/>
      <text x="8" y="16" fill="#d8b4fe" font-family="ui-monospace,monospace" font-size="11">aws_instance.web[2]</text>
      <text x="308" y="16" text-anchor="end" fill="#7e5bae" font-family="ui-monospace,monospace" font-size="10">14s</text>
    </g>
    <g transform="translate(16,276)">
      <rect x="0" y="0" width="120" height="24" rx="4" fill="#a855f7" fill-opacity="0.2" stroke="#a855f7" stroke-opacity="0.35" stroke-width="1"/>
      <text x="8" y="16" fill="#d8b4fe" font-family="ui-monospace,monospace" font-size="11">aws_route53</text>
      <text x="108" y="16" text-anchor="end" fill="#7e5bae" font-family="ui-monospace,monospace" font-size="10">4s</text>
    </g>

    <!-- Total time -->
    <g transform="translate(16,316)">
      <line x1="0" y1="0" x2="368" y2="0" stroke="#6b21a8" stroke-width="1" stroke-dasharray="4 2"/>
      <text x="200" y="22" text-anchor="middle" fill="#ef4444" font-family="ui-monospace,monospace" font-size="14" font-weight="700">Total: ~90s</text>
    </g>
  </g>

  <!-- Arrow in the middle -->
  <g transform="translate(560,280)">
    <rect x="0" y="-2" width="80" height="4" rx="2" fill="#22c55e" fill-opacity="0.6"/>
    <polygon points="80,-8 96,0 80,8" fill="#22c55e" fill-opacity="0.8"/>
    <text x="48" y="-16" text-anchor="middle" fill="#22c55e" font-family="system-ui,sans-serif" font-size="16" font-weight="700">4x</text>
    <text x="48" y="28" text-anchor="middle" fill="#22c55e" font-family="system-ui,sans-serif" font-size="11" font-weight="600">FASTER</text>
  </g>

  <!-- RIGHT SIDE: High parallelism -->
  <g transform="translate(700,100)">
    <!-- Header -->
    <text x="200" y="0" text-anchor="middle" fill="#22c55e" font-family="system-ui,sans-serif" font-size="14" font-weight="600">OPTIMIZED (parallelism=40)</text>

    <!-- Timeline bar background -->
    <rect x="0" y="20" width="400" height="360" rx="10" fill="#1e0a3a" fill-opacity="0.5" stroke="#22c55e" stroke-opacity="0.3" stroke-width="1"/>

    <!-- Resource bars -->
    <g transform="translate(16,36)">
      <rect x="0" y="0" width="280" height="24" rx="4" fill="#22c55e" fill-opacity="0.15" stroke="#22c55e" stroke-opacity="0.35" stroke-width="1"/>
      <text x="8" y="16" fill="#86efac" font-family="ui-monospace,monospace" font-size="11">aws_vpc.main</text>
      <text x="268" y="16" text-anchor="end" fill="#4a7c58" font-family="ui-monospace,monospace" font-size="10">12s</text>
    </g>
    <g transform="translate(16,66)">
      <rect x="0" y="0" width="200" height="24" rx="4" fill="#22c55e" fill-opacity="0.15" stroke="#22c55e" stroke-opacity="0.35" stroke-width="1"/>
      <text x="8" y="16" fill="#86efac" font-family="ui-monospace,monospace" font-size="11">aws_subnet.a</text>
      <text x="188" y="16" text-anchor="end" fill="#4a7c58" font-family="ui-monospace,monospace" font-size="10">8s</text>
    </g>
    <g transform="translate(16,96)">
      <rect x="0" y="0" width="200" height="24" rx="4" fill="#22c55e" fill-opacity="0.15" stroke="#22c55e" stroke-opacity="0.35" stroke-width="1"/>
      <text x="8" y="16" fill="#86efac" font-family="ui-monospace,monospace" font-size="11">aws_subnet.b</text>
      <text x="188" y="16" text-anchor="end" fill="#4a7c58" font-family="ui-monospace,monospace" font-size="10">8s</text>
    </g>
    <g transform="translate(16,126)">
      <rect x="0" y="0" width="160" height="24" rx="4" fill="#22c55e" fill-opacity="0.15" stroke="#22c55e" stroke-opacity="0.35" stroke-width="1"/>
      <text x="8" y="16" fill="#86efac" font-family="ui-monospace,monospace" font-size="11">aws_sg.web</text>
      <text x="148" y="16" text-anchor="end" fill="#4a7c58" font-family="ui-monospace,monospace" font-size="10">6s</text>
    </g>
    <g transform="translate(16,156)">
      <rect x="0" y="0" width="240" height="24" rx="4" fill="#22c55e" fill-opacity="0.15" stroke="#22c55e" stroke-opacity="0.35" stroke-width="1"/>
      <text x="8" y="16" fill="#86efac" font-family="ui-monospace,monospace" font-size="11">aws_lb.main</text>
      <text x="228" y="16" text-anchor="end" fill="#4a7c58" font-family="ui-monospace,monospace" font-size="10">10s</text>
    </g>
    <g transform="translate(16,186)">
      <rect x="0" y="0" width="320" height="24" rx="4" fill="#22c55e" fill-opacity="0.15" stroke="#22c55e" stroke-opacity="0.35" stroke-width="1"/>
      <text x="8" y="16" fill="#86efac" font-family="ui-monospace,monospace" font-size="11">aws_instance.web[0]</text>
      <text x="308" y="16" text-anchor="end" fill="#4a7c58" font-family="ui-monospace,monospace" font-size="10">14s</text>
    </g>
    <g transform="translate(16,216)">
      <rect x="0" y="0" width="320" height="24" rx="4" fill="#22c55e" fill-opacity="0.15" stroke="#22c55e" stroke-opacity="0.35" stroke-width="1"/>
      <text x="8" y="16" fill="#86efac" font-family="ui-monospace,monospace" font-size="11">aws_instance.web[1]</text>
      <text x="308" y="16" text-anchor="end" fill="#4a7c58" font-family="ui-monospace,monospace" font-size="10">14s</text>
    </g>
    <g transform="translate(16,246)">
      <rect x="0" y="0" width="320" height="24" rx="4" fill="#22c55e" fill-opacity="0.15" stroke="#22c55e" stroke-opacity="0.35" stroke-width="1"/>
      <text x="8" y="16" fill="#86efac" font-family="ui-monospace,monospace" font-size="11">aws_instance.web[2]</text>
      <text x="308" y="16" text-anchor="end" fill="#4a7c58" font-family="ui-monospace,monospace" font-size="10">14s</text>
    </g>
    <g transform="translate(16,276)">
      <rect x="0" y="0" width="120" height="24" rx="4" fill="#22c55e" fill-opacity="0.15" stroke="#22c55e" stroke-opacity="0.35" stroke-width="1"/>
      <text x="8" y="16" fill="#86efac" font-family="ui-monospace,monospace" font-size="11">aws_route53</text>
      <text x="108" y="16" text-anchor="end" fill="#4a7c58" font-family="ui-monospace,monospace" font-size="10">4s</text>
    </g>

    <!-- Total time -->
    <g transform="translate(16,316)">
      <line x1="0" y1="0" x2="368" y2="0" stroke="#6b21a8" stroke-width="1" stroke-dasharray="4 2"/>
      <text x="200" y="22" text-anchor="middle" fill="#22c55e" font-family="ui-monospace,monospace" font-size="14" font-weight="700">Total: ~22s</text>
    </g>
  </g>

  <!-- Environment variable card -->
  <g transform="translate(700,500)">
    <rect x="0" y="0" width="400" height="38" rx="8" fill="#1e0a3a" stroke="#7c3aed" stroke-width="1"/>
    <text x="16" y="24" font-family="ui-monospace,monospace" font-size="13" fill="#7e5bae">TFE_PARALLELISM=</text>
    <text x="192" y="24" font-family="ui-monospace,monospace" font-size="13" fill="#22c55e" font-weight="700">40</text>
  </g>

  <!-- Title -->
  <text x="600" y="645" text-anchor="middle" fill="#e2e8f0" font-family="system-ui,sans-serif" font-size="18" font-weight="600" opacity="0.5">Terraform Cloud Parallelism</text>
</svg>
