<svg xmlns="http://www.w3.org/2000/svg" viewBox="0 0 507.32 310.98"><defs><style>.cls-1{fill:#6ca24d}.cls-2{fill:#64a70b}.cls-3{fill:#7a4183}.cls-4{fill:#804673}.cls-5{fill:#2d2926}</style></defs><g id="Layer_2" data-name="Layer 2"><g id="Layer_1-2" data-name="Layer 1"><path class="cls-1" d="M438.24 54.13v.01-.01z"/><path class="cls-2" d="M346.24 296.86c3-2.22 15.47-19.74 25.11-34.93q-3.57.63-7.18 1.17c-8.83 14.41-18.48 30.18-17.93 33.76zm40.58-117.29c7.82 14.7 12.61 28.06 14.27 39.75q12.18-4.29 24-9.66a156.17 156.17 0 0 0 6.69-17.57 187.77 187.77 0 0 0 6-25.73l1.11-7.11c4.2-30 4.19-64.91.74-94.64L428.15 75l10.09-20.84C434.27 27.77 427.41 7 418.3 0c-8.5 12.11-17.24 59.33-27.62 107.19l8.75 21.44a129.1 129.1 0 0 0-11-11.25c-3.56 16-7.32 31.82-11.33 46.15l1.54 2.33c3.27 4.98 5.94 9.46 8.18 13.71zm10.67 8c.93-3.37 2.11-8.19 3.53-14 .73-2.89 1.44-6 2.2-9.38s1.49-6.85 2.29-10.49c1.56-7.29 3.06-15.1 4.41-22.93.68-3.91 1.42-7.82 2-11.69s1.2-7.67 1.74-11.35 1-7.26 1.48-10.65.88-6.59 1.2-9.55c.69-5.93 1.28-10.87 1.61-14.34l.58-5.45-.11 5.48c0 1.74-.14 3.86-.25 6.29s-.23 5.16-.48 8.15c-.44 6-1 12.92-2 20.34s-2.12 15.32-3.44 23.19c-1.47 7.85-3.08 15.67-4.75 23s-3.55 14-5.22 19.77c-.81 2.88-1.63 5.5-2.4 7.81s-1.4 4.32-2 6l-1.84 5.16s.57-1.93 1.45-5.32z"/><path class="cls-3" d="M383.73 259.47l-1.73.37c9.22 15.23 31.4 48.94 36.39 51.14.8-5.43-18.36-32.44-28.85-49.31zm-19.01-107.69c-19.25-25-45.3-50.53-70-69.68l-.66 16.12-8.16-22.74c-20.89-15.11-40-24.86-52.16-24.86a20 20 0 0 0-2.74.18c2.41 13 23.9 45 47.66 80.7l22.19 9.07h-16.19q3 4.54 6 9.14l6 9.1c4.15 6.39 8.24 12.77 12.19 19.07 2.21 3.54 23.94 12.44 30.88 14.8a8 8 0 0 1 5.39 7.61V233a289.98 289.98 0 0 0 24.15-4.43c.61-.14 1.24-.27 1.86-.42 9-2.12 18-4.73 26.86-7.74a83.2 83.2 0 0 0-2.76-12.64q-.67-2.31-1.53-4.76-1.44-4.2-3.43-8.84c-.43-1-.88-2-1.36-3q-1.23-2.72-2.65-5.58c-.73-1.46-1.49-2.94-2.3-4.47-1.16-2.19-2.42-4.42-3.76-6.66s-2.77-4.52-4.26-6.8c-2.12-3.24-4.36-6.51-6.75-9.81zm.22 53.05c-1.91-2.92-4.72-7-8.12-11.92-1.67-2.47-3.56-5.09-5.55-7.87l-6.33-8.68c-4.41-6-9.26-12.31-14.21-18.53-2.48-3.1-4.91-6.24-7.41-9.26s-4.94-6-7.34-8.83l-7-8.18c-2.24-2.58-4.34-5-6.35-7.24-4-4.45-7.27-8.18-9.65-10.73l-3.69-4 4 3.71c1.29 1.19 2.8 2.67 4.54 4.36s3.71 3.61 5.78 5.77c4.16 4.3 9 9.35 13.91 15s10.05 11.75 15.06 18 9.67 12.7 14 18.79 8.13 12 11.32 17c1.62 2.52 3 4.87 4.24 7s2.31 3.92 3.15 5.45l2.64 4.8z"/><path class="cls-4" d="M386.29 185.54q1.43 2.86 2.65 5.58-1.23-2.71-2.65-5.58zm4.01 8.63q2 4.64 3.43 8.84-1.44-4.2-3.43-8.84z"/><path class="cls-5" d="M189.2 216.46a46.83 46.83 0 0 0-13.34 2.12c-27 8.07-41.18 26.43-41.18 40.4 0 16.35 16.72 27.77 40.66 27.77s40.83-16.65 40.83-40.49c0-18.1-10.59-29.8-26.97-29.8zm-13.74 57.92c-.71.05-1.4.07-2.08.07-12.16 0-20.34-7.54-20.34-18.76 0-11.51 9-21.64 21.89-24.62a25.06 25.06 0 0 1 5.67-.69c10.45 0 17.2 7.52 17.2 19.16 0 13.75-9.19 23.97-22.34 24.84z"/><path class="cls-5" d="M100.41 195.1A300.09 300.09 0 0 1 32 203a304.6 304.6 0 0 1-30.92-1.58L0 201.3v11l.86.13a303.63 303.63 0 0 0 94.62-1.1l1.18-.2v74.37h21.8v-79l.76-.19a310.13 310.13 0 0 0 106.91-51.08l.41-.3v-23.47l-1.65 1.37a304.76 304.76 0 0 1-124.48 62.27zm163.14 76.45c-11 0-16.63-5.6-16.63-16.63V219.2c-5.92-3-11.81-6.27-17.53-9.67v53.71c0 15.38 8.36 23.51 24.17 23.51a35.81 35.81 0 0 0 27-11.56l3.15-3.54v13.1h17.54v-44.18c-5.9-1.7-11.79-3.58-17.54-5.61v26.24l-.38.49a25.42 25.42 0 0 1-19.78 9.86zm144.86-28.03l3.07-1c32.47-13.06 61.31-31.57 87.9-51.34v-17.83l-1.65 1.37A306.11 306.11 0 0 1 419.47 222c-7 2.9-13.9 5.5-20.6 7.73-8.4 2.79-17 5.22-25.45 7.22h-.2c-8 1.87-16.4 3.46-25 4.71-4.2.61-7.7 1.06-11 1.42l-1.12.12V201c-6-2.06-12.14-4.4-18.26-6.95l-.87-.36v91.89h19.13V257l.94-.06c9.66-.62 19.41-1.74 29.12-3.32l1.06-.17c.77-.12 1.55-.24 2.31-.38l.91-.15c2.14-.38 4.28-.8 6.42-1.23q3.63-.75 7.25-1.57l.3-.07 101.86 38.53 21.06-16.06z"/></g></g></svg>
