<svg xmlns="http://www.w3.org/2000/svg" viewBox="0 0 512 512" role="img" aria-label="TypeScript"><rect width="512" height="512" rx="50" fill="#3178c6"/><path fill="#fff" d="M316.939 407.424v50.061c8.138 4.172 17.763 7.3 28.875 9.386s22.823 3.129 35.135 3.129c11.999 0 23.396-1.147 34.196-3.442 10.801-2.294 20.268-6.075 28.402-11.344 8.13-5.269 14.578-12.165 19.328-20.69 4.75-8.524 7.125-19.073 7.125-31.646 0-9.116-1.366-17.107-4.094-23.971-2.73-6.865-6.67-12.992-11.815-18.383-5.145-5.39-11.318-10.235-18.516-14.534-7.199-4.298-15.075-8.469-23.627-12.512-6.225-2.756-11.816-5.341-16.768-7.756-4.953-2.414-9.16-4.882-12.626-7.402-3.464-2.521-6.146-5.196-8.041-8.026-1.897-2.829-2.846-6.075-2.846-9.736 0-3.353.755-6.371 2.267-9.054 1.51-2.683 3.654-4.991 6.43-6.924 2.777-1.932 6.187-3.434 10.232-4.505 4.043-1.07 8.547-1.605 13.513-1.605 3.613 0 7.428.27 11.446.81 4.018.541 8.062 1.376 12.133 2.503 4.07 1.129 8.027 2.555 11.871 4.282 3.842 1.726 7.387 3.722 10.632 5.986v-46.75c-7.617-2.917-15.937-5.078-24.962-6.482-9.025-1.404-19.376-2.106-31.054-2.106-11.886 0-23.149 1.275-33.788 3.825-10.639 2.551-20.002 6.547-28.089 11.987-8.086 5.44-14.464 12.4-19.135 20.879-4.67 8.479-7.005 18.689-7.005 30.63 0 14.991 4.327 27.78 12.98 38.367 8.652 10.587 21.793 19.553 39.42 26.898 6.52 2.677 12.597 5.301 18.232 7.872 5.634 2.572 10.504 5.196 14.608 7.872 4.105 2.677 7.339 5.587 9.704 8.731 2.364 3.144 3.546 6.768 3.546 10.871 0 3.156-.762 6.084-2.287 8.784s-3.838 5.043-6.94 7.029c-3.103 1.986-6.97 3.536-11.603 4.652-4.633 1.115-10.046 1.673-16.239 1.673-10.558 0-21.016-1.846-31.375-5.539-10.358-3.692-19.956-9.231-28.79-16.617zm-84.523-123.51h64.999v-41.999H146.219v41.999h64.694v183.999h54.503z"/></svg>
